<svg viewBox="0 0 661.47 227.92" xmlns="http://www.w3.org/2000/svg"><path d="m343 61a5.62 5.62 0 0 0 -5.46 4c-3.18 10.82-7.65 27-11.53 41.57l.45-.22c12.94-6.61 26.54-20.48 25.74-39.35a31.39 31.39 0 0 0 -.47-4.25 69.64 69.64 0 0 0 -7.91-1.62 6.33 6.33 0 0 0 -.82-.13z" fill="#f3f867"/><path d="m126.37 60.62a1.66 1.66 0 0 0 -1.56 1.18c-3.31 11.06-8.28 29-12.49 44.84l.44-.22c13-6.68 26.58-20.55 25.79-39.46a31.4 31.4 0 0 0 -.48-4.25 77.4 77.4 0 0 0 -11.52-2.08z" fill="#f3f867"/><path d="m659.22 129.77a40.7 40.7 0 0 0 -7-8.63c-1-1-1.91-2-2.67-2.84a126.35 126.35 0 0 0 -9.8-10.3c-.35-.33-.7-.68-1.06-1l-.07-.06a28.86 28.86 0 0 0 -7.62-5.94 20.38 20.38 0 0 0 -8-3.49c2.17-7.81 4.58-16.52 7-25.3l.44-1.55.09-.31c.28-1 .63-2.15.94-3.4 1.06-4.12 2-9 .66-14.07s-4.87-8.32-7.21-10.41l-1.22-1.1-17.98-17.06c-.27-.45-.54-.86-.82-1.24-2.74-3.68-7.13-5.82-12.36-6-4.76-.19-9.55-.29-14.23-.29q-2.4 0-4.8 0c-2.88 0-11.64.16-16 9a34.4 34.4 0 0 0 -2.66 8.67v.13c-.18.83-.34 1.62-.51 2.3-.53 2.09-1.23 4.74-2.11 8-2.58-2.18-6-3.28-10.22-3.28h-.34q-9.33.15-18.68.34c-2.53.06-7.78.17-12 3.9-1.33 1.18-3.87 7-5.62 6a5.77 5.77 0 0 1 -1.51-1.67 22.12 22.12 0 0 0 -15.51-8.26c-4.71-.19-9.5-.28-14.23-.28h-4.8c-2.88 0-11.66.16-16 9-.46.91-1.31 4.72-2.85 2.68-.42-.56-.84-1.08-1.26-1.58-7.8-9.11-19.12-12.06-27.21-12.93a59.51 59.51 0 0 0 -6.48-.34 65.85 65.85 0 0 0 -15.12 1.78 63.72 63.72 0 0 0 -7 2.09c-.7.25-2.53 1.4-3.23 1.26-.4-.09-1.32-1.56-1.59-1.93l-1-1.32c-4.6-6.14-11.8-15.12-21.23-22.42-7.68-8.09-18.17-13.39-30.38-15.34-14.25-2.27-28.08-2.58-39.74-2.58-5.07 0-10.24.07-14.8.13h-.12c-4.83.06-10.62 2-13.86 5.78-2.56 3-3.47 7-4.39 10.81q-2.56 10.71-6 21.2a11.42 11.42 0 0 1 -2.29 4.51c-3.27 3.41-10 2.07-14.29 2.2-4.72 0-9.43.21-14.15.31-4.14.1-8.11-.4-12.32.28-3 .49-2.55 3.66-3.2 6-.6 2.15-1.7 3.46-3.1.92a20.32 20.32 0 0 0 -3.71-5.39c-2.85-2.63-7-2-10.54-2.07q-6.42-.15-12.83-.38a11.7 11.7 0 0 1 -4-.63 11.32 11.32 0 0 1 -3.66-2.81c-3.44-3.52-6.29-7.73-9.88-11.07-1.36-1.26-2.76-2.63-4.11-4a111.21 111.21 0 0 0 -9.63-8.76c-7.6-7.6-17.81-12.6-29.55-14.48-14.26-2.24-28.09-2.55-39.75-2.55-5.05 0-10.24.07-14.8.13h-.12a18.71 18.71 0 0 0 -9.15 2c-5.74 3.16-7.46 8.88-8.38 12-8.97 29.87-40.79 143.21-46.6 166.11-1.74 7-1.09 12.36 2 16.45 1.78 4 4.93 6.66 6.86 8.3 1.78 1.51 3.61 3 5.42 4.44a116 116 0 0 1 9.58 8.29c.63.64 1.22 1.28 1.78 1.9 3.24 3.53 7.27 7.93 16.48 7.93 1.45 0 2.89-.06 4.46-.12h.6c6.71-.28 13.61-.39 20.27-.5h2.09 1.87c3.81 0 10.9 0 16.12-5.57 4.93-5.26 6.29-13.2 7.39-19.59v-.2c.18-1.08.36-2.09.53-2.89 1.44-6.91 2.83-12.68 4.32-18.81 0 0 .55-2.28.84-3.5a138.81 138.81 0 0 0 29.94 22.33 237.54 237.54 0 0 0 26.89 13.14c27 10.72 62.74 16.15 106.17 16.15h3.27.67 5.52 10.33 4.19.9a20.85 20.85 0 0 0 10-2.08 16.84 16.84 0 0 0 6.5-6.34 36.68 36.68 0 0 0 3.44 2.62c5 3.3 10.21 3.72 14.22 3.72 1.19 0 2.33 0 3.46-.08l2.18-.06c2.59 0 5.15-.2 7.62-.36 2.62-.17 5.33-.35 7.83-.35.92 0 1.75 0 2.57.07h68.29c8.23 0 16.58-.06 24.72-.12h4.66c5 0 9.95-.07 14.93-.08 3.14 0 8.41 0 13.05-2.82a14.18 14.18 0 0 0 3.35-2.79 29.7 29.7 0 0 0 4.8 2.93c5.88 2.87 12.21 3.23 17.06 3.23 2.37 0 4.65-.1 6.84-.2h.09c1.28-.06 2.53-.11 3.74-.14 2.51-.06 5.15-.09 8.08-.09 4.79 0 9.7.08 14.52.16l3.82.06 56.36.85c4 .06 8.16.13 12.27.13 2.93 0 5.56 0 8-.1h.11c.52 0 1.55.05 2.71.11 1.89.09 4.24.2 6.59.2 6.28 0 11.09-.76 14.14-4.47a12.86 12.86 0 0 0 2.42-5 2.17 2.17 0 0 1 .07-.24 156.93 156.93 0 0 0 4.54-19.53c.92-4.94 1.87-10.06 3.21-14.82a15.77 15.77 0 0 0 .7-6 22.92 22.92 0 0 0 4.69-3.63 21.28 21.28 0 0 0 5.85-12.77 36.55 36.55 0 0 0 -.09-6.74 26 26 0 0 1 -.12-4l.61-.8a21.69 21.69 0 0 0 2.47-3.67 15.62 15.62 0 0 0 -.57-15.02zm-6.85 11.29c-1 2-3 3.49-3.59 5.64-1.11 3.71.26 8.55-.15 12.46a13 13 0 0 1 -3.52 7.57 17.46 17.46 0 0 1 -11.83 4.78 35.35 35.35 0 0 1 3.06 2.68 5.76 5.76 0 0 1 1.59 2.24 6.37 6.37 0 0 1 -.31 3.57c-3.14 11.25-4.08 23-7.65 34.05a7.66 7.66 0 0 1 -1 2.54c-2 2.39-14.21 1-17.29 1.12-6.84.18-13.68.06-20.52 0l-55.81-.84c-8.91-.14-17.86-.34-26.74-.13-7.56.18-16.88 1.36-23.89-2-5-2.41-8.58-6.84-12.36-10.92l-.27 2.34c-.39 3.38-.38 6.94-3.46 8.79-2.58 1.56-6 1.62-8.77 1.62q-7.5 0-15 .09c-9.77.07-19.54.16-29.31.16h-67.82c-6.13-.35-12.45.53-18.6.63-5.28.08-10.6.81-15.12-2.19-4.25-2.83-8.05-7.53-11.81-11.1-.8 5.29-2.37 12.15-6.62 14.38a12.9 12.9 0 0 1 -6.11 1.13h-.86-4.23-10.36c-1.92 0-4 0-6.16-.05-.05 0-.07.05-.12.05h-3.15c-42.38 0-77.06-5.24-103.09-15.57a228.28 228.28 0 0 1 -25.95-12.69 131.73 131.73 0 0 1 -32.86-25.83c-2-1.83-3.91-3.74-5.8-5.71-1.58 7.08-2.94 12.71-4.21 18-1.5 6.22-2.92 12.09-4.39 19.14-.21 1-.41 2.14-.62 3.38-.91 5.28-2 11.86-5.26 15.3-2.76 2.94-7 2.94-10 2.94h-1.9-1.69c-6.88.11-14 .22-21 .52h-.43c-1.49.06-2.93.12-4.28.12-6.71 0-8.12-3.09-12.33-7.35-4.78-4.83-10.47-8.92-15.58-13.28-2.07-1.76-4.25-3.74-5-6.31a6.88 6.88 0 0 1 -.53-.55c-1.54-2-1.74-5.08-.63-9.52 5.83-22.8 37.59-135.89 46.54-165.78.84-2.8 1.88-5.64 4.42-7a10.91 10.91 0 0 1 5.24-1c4.93-.07 9.87-.14 14.81-.14 11.33 0 24.75.3 38.37 2.48 10.31 1.65 19.06 6.1 25.32 12.51 4.86 3.71 9.19 8.47 13.61 12.58 4.59 4.26 8.37 9.24 12.8 13.64l.52.5h.82q2.34 0 4.68 0c4.62 0 9.29.09 13.9.28 2.92.12 5 1 6.28 2.71a6.2 6.2 0 0 1 .91 1.84c.32.35.63.71.93 1.07q7.09 8.54 13.81 17.45c1.28-5.35 2.6-10.81 4-16.18.51-2 1.09-3.85 2.57-5.16 1.78-1.57 4.16-1.75 6.64-1.8q9.33-.19 18.64-.35h.28c2.59 0 4.34.63 5.35 1.91s1.15 2.93.92 5.07a127.65 127.65 0 0 0 5.52 17.35c3.51-13.23 6.86-25.7 9.72-36.12.5-2.17 1.07-4.31 1.76-6.38 1.73-6.21 3.21-11.42 4.36-15.26.84-2.79 1.87-5.64 4.41-7a11 11 0 0 1 5.25-1c4.93-.07 9.87-.14 14.81-.14 11.33 0 24.74.3 38.36 2.48 10.78 1.72 19.87 6.51 26.16 13.4 7.74 5.91 14.39 13.52 20.11 21.13a55.35 55.35 0 0 0 6.35 7.72c.26.24.59.57 1 .91 8.3-5.14 18.78-7.18 27.31-7.18a53.8 53.8 0 0 1 5.6.29c6.62.71 15.79 3 21.83 10.09a19.89 19.89 0 0 1 1.46 1.89c1.32 1.09 2.61 2.24 3.9 3.47 1.57 1.49 5.23 6.69 8.09 8.64.63-2.46 1.25-4.91 1.87-7.37.24-.92.43-1.86.62-2.81a27.25 27.25 0 0 1 2-6.67c1.91-3.88 5.46-4.25 8.62-4.3h4.69c4.61 0 9.29.09 13.89.28 2.92.12 5 1 6.28 2.71a6.28 6.28 0 0 1 .63 1.08c.45.37.89.77 1.31 1.17l11.3 10.6a41.49 41.49 0 0 1 3.39 3.39c1-4 2-8.05 3-12 .51-2 1.09-3.85 2.57-5.16 1.78-1.57 4.16-1.75 6.65-1.8q9.32-.19 18.63-.35h.29c2.4 0 4.07.54 5.1 1.65a9.75 9.75 0 0 1 1 .74c2.79 2.23 6.32 4.79 8.44 8 2.38-8.63 4.44-16.24 5.75-21.35.23-.93.42-1.87.62-2.82a27 27 0 0 1 2-6.66c1.92-3.89 5.46-4.26 8.63-4.31q2.34 0 4.68 0c4.61 0 9.29.1 13.9.28 2.74.11 4.76 1 6 2.69a6.39 6.39 0 0 1 .8 1.45c.14.12.3.22.43.35l18.46 17.56c2.41 2.29 5.24 4.2 6.1 7.54s.17 6.71-.66 9.93c-.3 1.18-.63 2.32-.93 3.37q-.28 1-.51 1.8-5.05 18.39-10.18 36.76a16.44 16.44 0 0 1 6.64-1.43h.41a12.51 12.51 0 0 1 8 2.87c2.84 1.07 5.23 3.86 7.31 5.81a116.32 116.32 0 0 1 9.19 9.65c2.79 3.27 6.58 6.31 8.69 10.11a7.33 7.33 0 0 1 .36 7.12z" fill="#f3f867"/><g fill="#6d57a5"><path d="m528.53 166.24h-.14a1.18 1.18 0 0 0 -.84.44 7.44 7.44 0 0 0 -1.13 1.6c-.12.2-.23.4-.36.6a24.94 24.94 0 0 0 -2.49 4.66 1.41 1.41 0 0 0 .06 1.31 2.12 2.12 0 0 0 1.76.59c.37 0 .75 0 1.1-.05h.57c1.48-.05 1.7-.65 1.85-1.89.1-.9.19-1.73.26-2.57a27.27 27.27 0 0 0 .11-3.51c-.04-.96-.54-1.14-.75-1.18z"/><path d="m400.43 91.57c-.2 0-.4 0-.6 0-3.81.25-7.66 3-10.27 7.42-3.83 6.45-6 14.32-6.37 23.38a15.11 15.11 0 0 0 .56 5.79 5.49 5.49 0 0 0 3.58 3.63 4.34 4.34 0 0 0 1 .12 8.1 8.1 0 0 0 3.22-.8 18 18 0 0 0 2.55-1.39c5.22-3.43 8.18-9.15 9.75-13.34a89.75 89.75 0 0 0 4.6-18.35 5.4 5.4 0 0 0 .09-1.17 3.73 3.73 0 0 0 -.83-1.79 9.28 9.28 0 0 0 -7.28-3.5z"/><path d="m643.25 123.71a116.32 116.32 0 0 0 -9.19-9.65c-2.08-2-4.47-4.74-7.31-5.81a8.22 8.22 0 0 1 .66.66 7.18 7.18 0 0 1 1.68 5.72 3.94 3.94 0 0 1 -3.6 3.52 3 3 0 0 1 -1.84-.66c-1.21-1-1.43-2.72-1.62-4.27a8.1 8.1 0 0 0 -.47-2.24 3 3 0 0 0 -2.56-1.47 1.57 1.57 0 0 0 -1.73 1.57 5.21 5.21 0 0 0 .69 2.5c.35.78.72 1.56 1.08 2.34a81.55 81.55 0 0 1 3.26 7.58 25.07 25.07 0 0 1 1.6 10.93 12.94 12.94 0 0 1 -3.52 7.56 15.78 15.78 0 0 1 -11.17 4.65c-.38 0-.77 0-1.15 0a17 17 0 0 1 -11.63-6.37 11.36 11.36 0 0 1 -2.42-9.16 3.84 3.84 0 0 1 1.38-2.49 4.44 4.44 0 0 1 1.61-.62 4.93 4.93 0 0 1 .85-.1 2 2 0 0 1 .48.05 3.19 3.19 0 0 1 2.25 2.56 21.57 21.57 0 0 1 .55 3 10.87 10.87 0 0 0 1.27 4.5c1.22 1.92 2.41 2.9 3.52 2.9a2.2 2.2 0 0 0 .85-.18c1.47-.63.61-2.72.58-2.81-.48-1.13-1-2.25-1.51-3.37-1.84-4-3.73-8.11-3.8-12.6a16.56 16.56 0 0 1 4.84-11.84 16.24 16.24 0 0 1 4.84-3.28q5.12-18.37 10.18-36.76.23-.84.51-1.8c.3-1 .63-2.19.93-3.37.83-3.22 1.5-6.64.66-9.93s-3.69-5.25-6.1-7.54l-18.45-17.58c-.13-.13-.29-.23-.43-.35 1.24 3.07.48 7.22-.4 10.65-.3 1.18-.63 2.32-.94 3.37-.18.64-.36 1.24-.51 1.79q-6.07 22.19-12.28 44.34l-1.59 5.72q-1.56 5.61-3.1 11.24c-2.34 8.53-4.77 17.35-7.3 26-.19.65-.35 1.39-.53 2.18-.64 2.91-1.45 6.52-4 8.11a7.81 7.81 0 0 1 -4.11.82h-21.5a10.69 10.69 0 0 1 -4.23-.58c-4.73-2-2.35-9.08-.93-13.33.27-.8.51-1.5.66-2.06.58-2.14 1.2-4.27 1.82-6.41.92-3.21 1.89-6.53 2.71-9.83 2.09-8.39 6.33-23.74 10.44-38.6 1.2-4.34 2.37-8.6 3.48-12.64-2.12-3.16-5.65-5.72-8.44-8a9.75 9.75 0 0 0 -1-.74c.08.09.17.17.24.26 1.73 2.21 1 5.93-.27 10.94-.43 1.71-1.52 5.95-3 11.63-5.14 20-14.73 57.18-16 64.39-.07.43-.15.88-.26 1.32a6.37 6.37 0 0 1 -1.52 3.16c-1.46 1.51-3.6 1.72-5.51 1.72l-23.81-.46c-1.94 0-3.24-.53-4-1.5-1.06-1.38-.75-3.42-.26-5.43.29-1.18 1.69-4.19.49-4.85s-3.78 2.1-4.68 2.68a52 52 0 0 1 -16.6 7.19 42.72 42.72 0 0 1 -9.31.93c-1 0-2 0-3-.08-5-.23-8.91-2.1-11.5-5.57-5.81-7.8-3.34-21.06-2-26.39q5-20.18 10.16-40.33c-2.86-2-6.52-7.15-8.09-8.64-1.29-1.23-2.58-2.38-3.9-3.47 6.42 9.28 4.51 21.47 1.4 33.35-.85 3.25-1.73 6.49-2.6 9.74-1.71 6.37-3.48 13-5.06 19.49-1.3 5.36-2.36 10.18-3.22 14.72l-.16.82c-.54 3-1 5.54-4 7.7-2.54 1.86-5.6 2.14-8 2.18l-20.88.3c-3.37 0-3.82-2-3.53-5.06.1-1 .29-3-1.42-2.77a3 3 0 0 0 -1.38.71c-3.93 3-7.57 5.42-12.37 6.92a33.86 33.86 0 0 1 -9.77 1.38c-9.52 0-17.08-3.52-20.22-9.43-5.32-10-.93-26.73 3.88-35.4 7.77-14 22.37-23.11 37.19-23.11a34.75 34.75 0 0 1 9.69 1.43c1.81.52 6.38 3.53 8 2a4.68 4.68 0 0 0 1-1.88c1.73-4.6 2.17-9.36 2.95-14.17.58-3.53.86-7.48-2.29-10a7.88 7.88 0 0 0 -5.11-1.58c-4.13 0-8.88 2.08-11.75 4.13a37.19 37.19 0 0 0 -6.67 6.41c-.5.59-.95 1.2-1.38 1.79a14.12 14.12 0 0 1 -4.07 4.13 7.56 7.56 0 0 1 -3.82 1.13 5.42 5.42 0 0 1 -2-.36 4.23 4.23 0 0 1 -2.55-2.46 6.61 6.61 0 0 1 .55-5.24 29.9 29.9 0 0 1 11.31-11.9c-.37-.34-.7-.67-1-.91a55.35 55.35 0 0 1 -6.35-7.72c-5.72-7.61-12.37-15.22-20.11-21.13a35.53 35.53 0 0 1 8.6 16.56c4.45 20.58-2.81 45.78-17.67 61.29a87.3 87.3 0 0 1 -25.17 17.62 69.06 69.06 0 0 1 -22.22 5.62c-.59.06-1.23.08-1.88.08s-1.55 0-2.35-.06-1.58-.06-2.35-.06a13 13 0 0 0 -3.29.33c-2.37.64-3.19 3.7-3.9 6.4-.12.43-.23.85-.34 1.25-1.8 6.26-3.45 12.7-5 18.92-2.34 9.14-4.75 18.58-7.71 27.7-.22.68-.45 1.52-.7 2.45-1.14 4.11-2.69 9.73-5.88 11.41a12.89 12.89 0 0 1 -6.11 1.12h-.86-4.23-10.36c-1.92 0-4 0-6.17 0 0 0-.07 0-.11 0h-3.15c-42.38 0-77.07-5.24-103.09-15.57a228.28 228.28 0 0 1 -26-12.69 132.76 132.76 0 0 1 -35.71-29l-2.27-2.61a.4.4 0 0 0 -.31-.13.33.33 0 0 0 -.34.23c-1.58 7.08-2.94 12.71-4.21 17.95-1.5 6.22-2.93 12.09-4.39 19.13-.21 1-.41 2.15-.62 3.39-.91 5.28-2 11.86-5.26 15.3-2.76 2.94-7 2.94-10 2.94h-1.9-1.69c-6.89.11-14 .22-21 .51h-.43c-1.5.07-2.94.13-4.28.13-3 0-6.17-.29-8.13-2.16.75 2.57 2.93 4.55 5 6.31 5.08 4.4 10.77 8.49 15.5 13.27 4.21 4.26 5.62 7.35 12.33 7.35 1.35 0 2.79-.06 4.28-.12h.43c7-.3 14.11-.41 21-.52h1.69 1.9c3.08 0 7.28 0 10-2.94 3.22-3.44 4.35-10 5.26-15.3.21-1.24.41-2.39.62-3.38 1.47-7 2.89-12.92 4.39-19.14 1.27-5.24 2.63-10.87 4.21-18 1.89 2 3.82 3.88 5.8 5.71a131.73 131.73 0 0 0 32.86 25.83 228.28 228.28 0 0 0 26 12.64c26 10.33 60.71 15.57 103.09 15.57h3.15c.05 0 .07 0 .12-.05 2.15 0 4.24.05 6.16.05h10.36 4.23.86a12.9 12.9 0 0 0 6.11-1.13c4.25-2.23 5.82-9.09 6.62-14.38 3.76 3.57 7.56 8.27 11.81 11.1 4.52 3 9.84 2.27 15.12 2.19 6.15-.1 12.47-1 18.6-.63h67.84c9.77 0 19.54-.09 29.31-.16q7.49-.06 15-.09c2.76 0 6.19-.06 8.77-1.62 3.08-1.85 3.07-5.41 3.46-8.79l.27-2.34c3.78 4.08 7.41 8.51 12.36 10.92 7 3.41 16.33 2.23 23.89 2 8.88-.21 17.83 0 26.74.13l55.81.84c6.84.1 13.68.22 20.52 0 3.08-.08 15.32 1.27 17.29-1.12a7.66 7.66 0 0 0 1-2.54c3.57-11.09 4.51-22.8 7.65-34.05a6.37 6.37 0 0 0 .31-3.57 5.76 5.76 0 0 0 -1.59-2.24 35.35 35.35 0 0 0 -3.06-2.68 17.46 17.46 0 0 0 11.83-4.78 13 13 0 0 0 3.52-7.57c.41-3.91-1-8.75.15-12.46.63-2.15 2.57-3.65 3.59-5.64a7.33 7.33 0 0 0 -.43-7.24c-2.13-3.72-5.96-6.72-8.71-10.01zm-312.86 43.86a63.55 63.55 0 0 1 -2 9 30.46 30.46 0 0 1 -4.28 9.33 14.3 14.3 0 0 1 -8.15 5.71 22.58 22.58 0 0 1 -4.42.41l-2.34.07c-1.6 0-3.17.1-4.82.13-1.37 0-2.75 0-4.12 0-1.7 0-3.4 0-5.09-.05h-.09-.71c-.29 0-.61 0-.92 0-1 0-1.34-.19-1.44-.35-.32-.5.26-2.29.51-3.05.07-.22.13-.41.17-.55l8.93-31.5c.68-2.41 1.9-2.82 4.36-2.82h.45l8.88.14c2.7 0 5.37.2 7.94.47s3.77.91 5.47 3.19a9.25 9.25 0 0 1 1.51 3.44 17.66 17.66 0 0 1 .16 6.43zm35.44 4.33a4.46 4.46 0 0 1 -.92.28c-1 .24-2.16.52-2.38 1.36-.17.66.41 1.26.88 1.74a3.85 3.85 0 0 1 .42.48 8.19 8.19 0 0 1 1.17 3.24 22.45 22.45 0 0 1 -.13 5.55c-.05.43-.1.86-.14 1.29a13.83 13.83 0 0 0 .18 3.61c.24 1.29.2 2-.13 2.4a2.31 2.31 0 0 1 -1.81.52l-8.64-.11a4.42 4.42 0 0 1 -2.18-.44c-.82-.51-.52-2.75-.36-4 0-.28.07-.53.09-.72.08-.81.18-1.62.29-2.43.13-1.05.27-2.13.35-3.21a8.12 8.12 0 0 0 -.22-3.12 2.94 2.94 0 0 0 -2.49-2.08 1.74 1.74 0 0 0 -1.51.71 2.44 2.44 0 0 0 -.28.71c-.4 1.49-.8 2.95-1.2 4.4-.75 2.74-1.52 5.56-2.23 8.42a1.29 1.29 0 0 1 -1.52 1.28c-2.48.15-5 .22-7.52.22h-.91a1.77 1.77 0 0 1 -1.38-.38 1.85 1.85 0 0 1 -.07-1.44c.26-1.18.54-2.35.83-3.52 1.74-7.06 3.63-14.08 5.24-20 .65-2.36 1.3-4.73 2-7.08.07-.24.14-.49.2-.76.42-1.58.9-3.39 2.22-4.1a6.48 6.48 0 0 1 2.79-.6l1.32-.08c2.51-.14 5.1-.3 7.69-.3a36.58 36.58 0 0 1 9.75 1.1 7.93 7.93 0 0 1 5.71 5.8 9.91 9.91 0 0 1 -1.68 8.35 9.75 9.75 0 0 1 -3.43 2.91zm42.49-15.16c-.31 6.76-1.07 13.61-1.8 20.23l-.28 2.53q-.32 2.81-.59 5.62c-.07.61-.09 1.27-.12 1.91a17.67 17.67 0 0 1 -.39 3.57c-.37 1.4-1.4 1.68-2.95 1.68h-.82-1.07l-6.9.17h-.5a1.54 1.54 0 0 1 -1-.21.8.8 0 0 1 -.17-.59 11.84 11.84 0 0 1 .55-2.85 15.05 15.05 0 0 0 .54-2.35 2.05 2.05 0 0 0 -.06-1c-.22-.59-.8-.89-1.74-.89h-3.21c-2.64 0-3.61 2.66-4.39 4.78-.2.55-.4 1.08-.61 1.54a2.41 2.41 0 0 1 -.91 1.25 2.25 2.25 0 0 1 -1.09.18h-1.77c-2.2 0-4.44-.08-6.64-.23a2 2 0 0 1 -.79-.16c-.55-.31-.57-1.18-.43-1.83a13.43 13.43 0 0 1 1.27-3.12c2.58-5 5.3-10.05 7.94-14.92l8.37-15.51a5.66 5.66 0 0 1 1.36-1.85 5.43 5.43 0 0 1 3.39-.73h1.49 3.84 6.24c1 0 2.36.07 2.91.74a3 3 0 0 1 .33 2.04zm39.89 9.73a4.12 4.12 0 0 1 -1.53.16l-7.92-.14a2.21 2.21 0 0 1 -1.52-.41c-.55-.51-.43-1.38-.36-2.13a8.78 8.78 0 0 0 -.12-2.4 2.53 2.53 0 0 0 -.49-1.21c-1.26-1.45-3.6.24-4.41 1.32a27 27 0 0 0 -4 8.46c-.07.23-.15.51-.25.81-.94 3-2.7 8.69-.9 11.37a3.27 3.27 0 0 0 2.59 1.41h.51a4.84 4.84 0 0 0 2.86-.86c1-.74 1.21-1.91 1.44-3.08a1.85 1.85 0 0 0 -.35-1.85 1.94 1.94 0 0 0 -1.19-.28h-1.68a2.38 2.38 0 0 1 -.92-.12c-1.68-.7 0-3.84.4-5a3.53 3.53 0 0 1 .87-1.64 3.12 3.12 0 0 1 2-.49l8.39.13c.37 0 .78 0 1.26-.06.64 0 1.37-.09 2.11-.09 1.75 0 2.78.29 3 .86a3.06 3.06 0 0 1 .05 1.73 36.75 36.75 0 0 1 -.95 3.82c-.24.88-.5 1.78-.71 2.7-.38 1.66-.78 3.32-1.18 5-.26 1.07-.52 2.15-.77 3.22-.09.39-.16.8-.24 1.21-.34 1.92-.67 3.73-2.7 3.83l-2.93.11-6.52.22a1.15 1.15 0 0 1 -.95-.32 1.87 1.87 0 0 1 0-1.54l.51-1.7a.37.37 0 0 0 -.17-.44.41.41 0 0 0 -.19 0 .35.35 0 0 0 -.28.13 21.24 21.24 0 0 1 -1.8 1.75 8.73 8.73 0 0 1 -5.94 2.29 11.19 11.19 0 0 1 -1.6-.12 11.87 11.87 0 0 1 -3-.73c-3-1.28-4.41-4.56-4.72-7.2-.7-5.88 1.35-12.41 3.44-18a25.66 25.66 0 0 1 9.19-12.28 15.48 15.48 0 0 1 8.4-2.42h.35a18.08 18.08 0 0 1 10.1 2.92 8.71 8.71 0 0 1 3.5 5c.47 1.44 1.26 5.32-.68 6.06zm51 5.43a4.46 4.46 0 0 1 -.92.28c-1 .24-2.16.52-2.38 1.36-.16.66.41 1.26.88 1.74a3.85 3.85 0 0 1 .42.48 8.14 8.14 0 0 1 1.17 3.26 21.88 21.88 0 0 1 -.13 5.54c-.05.44-.09.87-.14 1.3a13.87 13.87 0 0 0 .19 3.61c.23 1.29.19 2-.14 2.4a2.31 2.31 0 0 1 -1.81.52l-8.64-.11a4.42 4.42 0 0 1 -2.18-.44c-.81-.51-.52-2.75-.36-4 0-.28.07-.53.09-.72.08-.82.18-1.62.29-2.43.13-1.05.27-2.14.35-3.21a8.12 8.12 0 0 0 -.22-3.12 2.94 2.94 0 0 0 -2.49-2.08 1.74 1.74 0 0 0 -1.51.71 2.67 2.67 0 0 0 -.28.71c-.39 1.49-.8 2.95-1.2 4.4-.75 2.73-1.52 5.56-2.23 8.42a1.91 1.91 0 0 1 -.47 1 1.88 1.88 0 0 1 -1 .27c-2.49.15-5 .22-7.52.22h-.98a1.77 1.77 0 0 1 -1.38-.38 1.85 1.85 0 0 1 -.07-1.44c.25-1.16.54-2.33.83-3.52 1.74-7.06 3.63-14.08 5.25-20 .64-2.36 1.29-4.73 2-7.08.07-.24.14-.5.21-.76.41-1.59.89-3.39 2.22-4.1a6.44 6.44 0 0 1 2.78-.6l1.32-.08c2.51-.14 5.1-.3 7.69-.3a36.53 36.53 0 0 1 9.75 1.1 7.93 7.93 0 0 1 5.71 5.8 9.91 9.91 0 0 1 -1.68 8.35 9.75 9.75 0 0 1 -3.45 2.9zm42.49-15.16c-.31 6.76-1.07 13.61-1.8 20.23l-.28 2.53q-.32 2.81-.59 5.62c-.07.61-.09 1.27-.12 1.91a17 17 0 0 1 -.39 3.57c-.37 1.4-1.4 1.68-3 1.68h-.82-1.07l-6.9.17h-.5a1.54 1.54 0 0 1 -1-.21.8.8 0 0 1 -.17-.59 11.84 11.84 0 0 1 .55-2.85 15.05 15.05 0 0 0 .54-2.35 2.05 2.05 0 0 0 -.06-1c-.22-.59-.8-.89-1.73-.89h-3.21c-2.65 0-3.62 2.66-4.4 4.78-.2.55-.39 1.08-.61 1.54a2.41 2.41 0 0 1 -.91 1.25 2.25 2.25 0 0 1 -1.09.18h-1.77c-2.2 0-4.44-.08-6.64-.23a2 2 0 0 1 -.73-.08c-.55-.31-.57-1.18-.43-1.83a13.43 13.43 0 0 1 1.27-3.12c2.59-5 5.33-10.1 8-15l8.34-15.43a5.5 5.5 0 0 1 1.35-1.85 5.43 5.43 0 0 1 3.39-.73h1.49 3.84 6.24c1 0 2.36.07 2.91.74a3 3 0 0 1 .27 1.96zm42.05-40.62a2.7 2.7 0 0 1 1.28-.67 6.47 6.47 0 0 0 2.76-1.6 9.35 9.35 0 0 1 -2.79-10.91c1.71-3.94 5.87-6.39 10.85-6.39h.75a6.56 6.56 0 0 1 5 2.53 8.77 8.77 0 0 1 1.57 7 18.12 18.12 0 0 1 -5.78 10.49 14.26 14.26 0 0 1 -9.16 3.49 12.55 12.55 0 0 1 -2.38-.23 3.77 3.77 0 0 1 -2-.94 2 2 0 0 1 -.13-2.77zm-16.35 45.13a2.08 2.08 0 0 0 -1.59-.65 3.37 3.37 0 0 0 -2.39 1.05c-1.95 2-3 5.61-3.79 8.23 0 0-.31 1-.42 1.4a33.53 33.53 0 0 0 -1.5 6.31c-.1 1-.3 4.29 1.39 5.41a1.85 1.85 0 0 0 1 .33c2.56 0 4.38-5.45 4.4-5.51s.1-.31.14-.47a3.9 3.9 0 0 1 1.16-2.21 3.7 3.7 0 0 1 2.21-.47h8.39a3 3 0 0 1 1.37.21 1.92 1.92 0 0 1 .84 2c-.3 2.51-2.08 5.8-3.65 8a20.92 20.92 0 0 1 -6.59 6.09 21.65 21.65 0 0 1 -10.68 2.8 18.65 18.65 0 0 1 -7.29-1.42c-3-1.28-4.4-4.56-4.72-7.2-.69-5.89 1.35-12.41 3.44-18a25.73 25.73 0 0 1 9.19-12.28 15.5 15.5 0 0 1 8.4-2.42h.35a18.06 18.06 0 0 1 10.1 2.92 8.52 8.52 0 0 1 3.62 6.49c.23 2.64.27 5.29-1 6.72a3.55 3.55 0 0 1 -2.71 1.11c-1.33 0-2.69.07-4 .07-1.07 0-2.13 0-3.2-.05h-.87c-.9 0-1.73 0-2.1-.46a1.62 1.62 0 0 1 -.21-1.28 13.17 13.17 0 0 1 .59-2.21 13.1 13.1 0 0 0 .65-2.59 2.37 2.37 0 0 0 -.56-1.92zm46-5.85-.25.92c-.36 1.27-.73 2.57-1 3.91a3.75 3.75 0 0 1 -.55 1.54 1.73 1.73 0 0 1 -1.57.61c-.35 0-.73 0-1.09-.07s-.7-.07-1-.07h-.35c-2 0-3.45 0-4.86-.07h-.44c-.24 0-.5 0-.74 0a1.84 1.84 0 0 0 -1.21.36 2.63 2.63 0 0 0 -.85 1.73 6.1 6.1 0 0 1 -.22.63c-.3.74-.75 1.86.26 2.4a2.46 2.46 0 0 0 1.18.22h5 .95a3.36 3.36 0 0 1 2.25.56c.49.5 0 1.62-.28 2.45a5.48 5.48 0 0 0 -.24.66c-.26.82-.4 1.46-.54 2.08s-.28 1.23-.52 2a2.06 2.06 0 0 1 -.24.56c-.3.42-1 .49-1.66.5l-7.94.08c-1.52 0-1.78 1-2.14 2.23q-.11.42-.27.93a1.33 1.33 0 0 0 .24 1.34 1.37 1.37 0 0 0 1 .32l8.59-.06a5.72 5.72 0 0 1 .59 0 2 2 0 0 1 .82.23c.75.43.45 1.58.34 1.93-.18.55-.55 1.77-.91 3s-.73 2.42-.9 3c-.07.2-.13.42-.19.65a4.87 4.87 0 0 1 -.74 1.77 2.79 2.79 0 0 1 -2.3.77h-7.72q-5.68 0-11.36 0a3.59 3.59 0 0 1 -1.67-.27c-1-.53-.16-2.88.31-4.28.15-.43.27-.8.34-1.07 1.72-7 3.62-14 5.24-20 .65-2.36 1.3-4.73 2-7.08.11-.41.22-.87.32-1.36a10.19 10.19 0 0 1 1.09-3.25c.83-1.19 2.71-1.35 4.61-1.35h10.27c1.17 0 2.32 0 3.48.07s2.43.07 3.66.07h.29q.81 0 1 .24c.16.06.03.63-.12 1.17z"/><path d="m494.63 64.17c-1.59 6.07-3.34 12.2-5 18.13-1.34 4.65-2.67 9.3-3.94 14-1.68 6.18-3 11.34-4 16.27-.13.59-.34 1.37-.59 2.26-.93 3.33-2.66 9.52-.55 11.23a3.45 3.45 0 0 0 2.14.67 4.93 4.93 0 0 0 1.25-.16c11.42-2.91 16.76-16.58 18.93-24.47 2.3-8.39 4.37-17 6.36-25.37.59-2.45 1.18-4.94 1.79-7.44a41.49 41.49 0 0 0 -3.39-3.39l-11.3-10.6c-.42-.4-.86-.8-1.31-1.17 1.21 2.78.51 6.59-.39 10.04z"/><path d="m265.64 38.12c.61-2.22 1.2-4.36 1.76-6.38-.69 2.07-1.26 4.26-1.76 6.38z"/><path d="m357.24 160.59a3.49 3.49 0 0 0 -2.12-.91c-2.16 0-3 3.15-3.57 5.45-.14.53-.26 1-.38 1.33l-.08.25c-.4 1.16-.9 2.6-.29 3.45a1.56 1.56 0 0 0 1.35.58 1.94 1.94 0 0 0 .33 0 6.76 6.76 0 0 0 5.17-3.24c1.09-1.89 1.55-5.32-.41-6.91z"/><path d="m490.59 160.59a3.49 3.49 0 0 0 -2.12-.91c-2.16 0-3 3.15-3.57 5.45-.14.53-.26 1-.37 1.33l-.09.25c-.4 1.16-.9 2.6-.29 3.45a1.57 1.57 0 0 0 1.35.58 1.94 1.94 0 0 0 .33 0 6.74 6.74 0 0 0 5.17-3.24c1.09-1.89 1.55-5.32-.41-6.91z"/><path d="m395.18 166.24h-.18a1.18 1.18 0 0 0 -.84.44 7.2 7.2 0 0 0 -1.13 1.6c-.12.2-.23.4-.36.6a24.94 24.94 0 0 0 -2.49 4.66 1.38 1.38 0 0 0 .06 1.31 2.12 2.12 0 0 0 1.76.59c.37 0 .75 0 1.1-.05h.57c1.47-.05 1.7-.65 1.84-1.89.1-.86.2-1.71.27-2.57a27.22 27.22 0 0 0 .11-3.51c.01-.69-.26-1.1-.71-1.18z"/><path d="m196.68 64.17c-1.59 6.08-3.35 12.22-5.06 18.17-1.33 4.66-2.62 9.28-3.92 13.93-1.68 6.19-3 11.36-4 16.27-.13.59-.35 1.37-.6 2.27-.93 3.32-2.65 9.51-.54 11.22a3.44 3.44 0 0 0 2.14.67 4.8 4.8 0 0 0 1.24-.16c11.43-2.91 16.77-16.58 18.94-24.47 2.3-8.39 4.36-17 6.36-25.37.26-1.09.52-2.2.79-3.3q-6.72-8.91-13.81-17.51c-.3-.36-.61-.72-.93-1.07.86 2.78.17 6.36-.61 9.35z"/><path d="m337.5 65.07a5.62 5.62 0 0 1 5.5-4.07 6.33 6.33 0 0 1 .86.06 69.64 69.64 0 0 1 7.91 1.62 29.88 29.88 0 0 0 -3.16-9.07c-6.94-12.61-20.15-15.9-29.48-17.28a6.33 6.33 0 0 0 -.86-.06 5.62 5.62 0 0 0 -5.46 4c-5.24 17.78-13.93 49.73-17.81 65.96a5.67 5.67 0 0 0 5.53 7h.36a62.55 62.55 0 0 0 25-6.54c3.96-14.69 8.43-30.8 11.61-41.62z"/><path d="m135.51 99.54c-9.46 9.87-26.38 20.66-43.75 23.5l16.83 9c30.84 16.59 68.72 18.72 98.28 18.72 9.93 0 19.81-.29 29.14-.62 5.64-21.75 13.08-50.27 19.91-75.95a127.65 127.65 0 0 1 -5.52-17.35 46.47 46.47 0 0 1 -1.2 5.87c-.42 1.71-1.51 5.95-3 11.62-5.15 20-14.74 57.19-16 64.4-.08.45-.16.89-.26 1.32a6.5 6.5 0 0 1 -1.52 3.16c-1.42 1.56-3.57 1.79-5.42 1.79l-23.81-.46c-1.94 0-3.25-.53-4-1.5-1.06-1.38-.76-3.42-.27-5.43l1.64-6.67a39.44 39.44 0 0 1 -5.82 4.5 51.94 51.94 0 0 1 -16.61 7.19 42.69 42.69 0 0 1 -9.3.93c-1 0-2 0-3-.08-5-.23-8.92-2.1-11.5-5.57-5.81-7.8-3.34-21.06-2-26.39q6-23.86 12-47.7c.24-.92.43-1.87.62-2.81a26.69 26.69 0 0 1 2-6.67c1.75-3.55 4.86-4.16 7.8-4.28l-.52-.5c-4.43-4.4-8.21-9.38-12.8-13.64-4.42-4.11-8.75-8.87-13.61-12.58a35.73 35.73 0 0 1 9.43 17.45c4.31 20.27-2.46 42.79-17.74 58.75z"/><path d="m124.81 61.8a1.66 1.66 0 0 1 1.56-1.18h.18a77.4 77.4 0 0 1 11.52 2.08 29.36 29.36 0 0 0 -3.15-9.06c-7.31-13.29-21.53-16.47-33.1-17.75h-.18a1.64 1.64 0 0 0 -1.56 1.18c-5.93 19.8-17.2 61.59-19.86 74.32a1.65 1.65 0 0 0 .33 1.37 1.61 1.61 0 0 0 1.25.59c11.82 0 21.53-2.17 30.52-6.71 4.21-15.88 9.18-33.78 12.49-44.84z"/><path d="m314.46 160.05a2.35 2.35 0 0 0 -1.67.63 5.73 5.73 0 0 0 -1 2.76 10 10 0 0 1 -.22 1c-.16.54-.32 1.07-.49 1.6-.21.69-.42 1.37-.62 2.06l-4.79 16.41a1.44 1.44 0 0 0 .18 1.45 1.31 1.31 0 0 0 .77.3 5.32 5.32 0 0 0 .69 0 7.57 7.57 0 0 0 4.82-2 15.26 15.26 0 0 0 3.37-4.73 35.86 35.86 0 0 0 3.61-12.36c.18-1.72.22-3.67-.85-5.2a5.21 5.21 0 0 0 -3.8-1.92z"/></g><path d="m18.33 194.49c1.34 0 2.78-.06 4.28-.13h.43c7-.29 14.1-.4 21-.51h1.69 1.9c3.07 0 7.28 0 10-2.94 3.22-3.44 4.35-10 5.26-15.3.21-1.24.41-2.39.62-3.39 1.46-7 2.89-12.91 4.39-19.13 1.27-5.24 2.63-10.87 4.21-17.95a.33.33 0 0 1 .34-.23.4.4 0 0 1 .31.13l2.32 2.63a132.76 132.76 0 0 0 35.71 29 228.28 228.28 0 0 0 26 12.69c26 10.33 60.71 15.57 103.09 15.57h3.12s.07 0 .11 0h6.17 10.36 4.23.86a12.89 12.89 0 0 0 6.11-1.12c3.19-1.68 4.74-7.3 5.88-11.41.25-.93.48-1.77.7-2.45 3-9.12 5.37-18.56 7.71-27.7 1.59-6.22 3.24-12.66 5-18.92.11-.4.22-.82.34-1.25.71-2.7 1.53-5.76 3.9-6.4a13 13 0 0 1 3.29-.33c.77 0 1.57 0 2.35.06s1.59.06 2.35.06 1.29 0 1.88-.08a69.06 69.06 0 0 0 22.22-5.62 87.3 87.3 0 0 0 25.17-17.62c14.86-15.51 22.12-40.71 17.67-61.29a35.53 35.53 0 0 0 -8.6-16.56c-6.29-6.89-15.38-11.68-26.16-13.4-13.62-2.18-27-2.48-38.36-2.48-4.94 0-9.88.07-14.81.14a11 11 0 0 0 -5.25 1c-2.54 1.4-3.57 4.25-4.41 7-1.15 3.84-2.63 9.05-4.36 15.26-.56 2-1.15 4.16-1.76 6.38-2.86 10.42-6.21 22.89-9.72 36.12-6.83 25.68-14.27 54.2-19.91 76-9.33.33-19.21.62-29.14.62-29.56 0-67.44-2.13-98.28-18.72l-16.83-9c17.37-2.84 34.29-13.63 43.75-23.5 15.28-16 22.05-38.48 17.66-58.77a35.73 35.73 0 0 0 -9.43-17.45c-6.26-6.41-15-10.86-25.32-12.51-13.62-2.18-27-2.48-38.37-2.48-4.94 0-9.88.07-14.81.14a10.91 10.91 0 0 0 -5.24 1c-2.54 1.4-3.58 4.24-4.42 7-8.9 29.72-40.66 142.81-46.53 165.61-1.11 4.44-.91 7.55.63 9.52a6.88 6.88 0 0 0 .53.55c2 1.87 5.21 2.16 8.17 2.16zm270.84-173.73c-2.28-.19-5.07-.88-5.59-3.11a3.81 3.81 0 0 1 2-3.89 10.6 10.6 0 0 1 4.53-1.09c16.07-1.26 37-1.59 52.23 4.11a8 8 0 0 1 3.66 2.22 3 3 0 0 1 0 4c-1.09 1-2.82.74-4.28.43-17.12-3.68-35.01-1.2-52.55-2.67zm11.76 92.42h-.36a5.67 5.67 0 0 1 -5.53-7c3.84-16.24 12.53-48.18 17.73-65.89a5.62 5.62 0 0 1 5.46-4 6.33 6.33 0 0 1 .86.06c9.33 1.38 22.54 4.67 29.48 17.28a29.88 29.88 0 0 1 3.16 9.07 31.39 31.39 0 0 1 .47 4.3c.8 18.91-12.8 32.78-25.78 39.46l-.45.22a62.55 62.55 0 0 1 -25.04 6.5zm-219.13.17a1.61 1.61 0 0 1 -1.25-.59 1.65 1.65 0 0 1 -.33-1.37c2.66-12.73 13.93-54.52 19.86-74.32a1.64 1.64 0 0 1 1.56-1.18h.18c11.57 1.28 25.79 4.46 33.1 17.75a29.36 29.36 0 0 1 3.15 9.06 31.4 31.4 0 0 1 .48 4.25c.79 18.91-12.8 32.78-25.79 39.46l-.44.22c-8.99 4.55-18.7 6.68-30.52 6.72zm62.2-70.76c-1.48 1-3.33-.47-4.57-1.74a54.16 54.16 0 0 0 -25.05-14.55c-14.06-3.63-28.69-2.12-43-2.75a14.29 14.29 0 0 1 -4-.57 5 5 0 0 1 -3-2.51 4.54 4.54 0 0 1 1.09-5c2.71-2.69 8-2.85 11.48-2.83 10.93.09 21.46.09 32.18 2.3 13.79 2.84 29.52 9.39 35.37 23.15.56 1.54.91 3.61-.5 4.5z" fill="#fa94f5"/><path d="m162.87 54.32a26.69 26.69 0 0 0 -2 6.67c-.19.94-.38 1.89-.62 2.81q-6.08 23.83-12 47.7c-1.33 5.33-3.8 18.59 2 26.39 2.58 3.47 6.45 5.34 11.5 5.57 1 0 2 .08 3 .08a42.69 42.69 0 0 0 9.3-.93 51.94 51.94 0 0 0 16.61-7.19 39.44 39.44 0 0 0 5.82-4.5l-1.64 6.67c-.49 2-.79 4 .27 5.43.74 1 2 1.46 4 1.5l23.89.48c1.9 0 4-.21 5.51-1.72a6.5 6.5 0 0 0 1.49-3.18c.1-.43.18-.87.26-1.32 1.25-7.21 10.84-44.41 16-64.4 1.46-5.67 2.55-9.91 3-11.62a46.47 46.47 0 0 0 1.2-5.87c.23-2.14 0-3.84-.92-5.07s-2.76-1.91-5.35-1.91h-.28q-9.32.15-18.64.35c-2.48.05-4.86.23-6.64 1.8-1.48 1.31-2.06 3.19-2.57 5.16-1.4 5.37-2.72 10.83-4 16.18-.27 1.1-.53 2.21-.79 3.3-2 8.35-4.06 17-6.36 25.37-2.17 7.89-7.51 21.56-18.94 24.47a4.8 4.8 0 0 1 -1.24.16 3.44 3.44 0 0 1 -2.14-.67c-2.11-1.71-.39-7.9.54-11.22.25-.9.47-1.68.6-2.27 1.07-4.91 2.35-10.08 4-16.27 1.26-4.65 2.59-9.29 3.92-13.93 1.71-6 3.47-12.09 5.06-18.17.78-3 1.47-6.57.58-9.35a6.2 6.2 0 0 0 -.91-1.84c-1.25-1.68-3.36-2.59-6.28-2.71-4.61-.19-9.28-.28-13.9-.28q-2.34 0-4.68 0h-.82c-2.97.17-6.08.78-7.83 4.33zm58.82.06c2.29-1.6 5.3-1.46 7.89-1.55 4.54-.15 8.8-.52 13.34.28a6.12 6.12 0 0 1 2.89 1.08 2.3 2.3 0 0 1 .71 2.79 3.25 3.25 0 0 1 -2.08 1.21 44.13 44.13 0 0 1 -9.47 1l-9.44.29c-1.81.06-3.76.07-5.22-1-1.67-1.23.17-3.26 1.38-4.1zm-49.69-.73a2.6 2.6 0 0 1 .45-.07 88.29 88.29 0 0 1 17.43.24 5.07 5.07 0 0 1 2.11.54c1.64 1 1.33 2.72 0 3.74a7.25 7.25 0 0 1 -3.24 1.21c-5.27.89-10.94.77-16.29.86a9.11 9.11 0 0 1 -3.17-.31c-5.37-1.86-.29-5.6 2.71-6.21z" fill="#fa94f5"/><path d="m542.75 111.49c-.82 3.3-1.79 6.62-2.71 9.83-.62 2.14-1.24 4.27-1.82 6.41-.15.56-.39 1.26-.66 2.06-1.42 4.25-3.8 11.36.93 13.33a10.69 10.69 0 0 0 4.23.58h21.5a7.81 7.81 0 0 0 4.11-.82c2.59-1.59 3.4-5.2 4-8.11.18-.79.34-1.53.53-2.18 2.53-8.63 5-17.45 7.3-26q1.54-5.62 3.1-11.24l1.59-5.72q6.17-22.16 12.28-44.34c.15-.55.33-1.15.51-1.79.31-1.05.64-2.19.94-3.37.88-3.43 1.64-7.58.4-10.65a6.39 6.39 0 0 0 -.8-1.45c-1.25-1.67-3.27-2.58-6-2.69-4.61-.18-9.29-.28-13.9-.28q-2.34 0-4.68 0c-3.17.05-6.71.42-8.63 4.31a27 27 0 0 0 -2 6.66c-.2 1-.39 1.89-.62 2.82-1.31 5.11-3.37 12.72-5.75 21.35-1.11 4-2.28 8.3-3.48 12.64-4.04 14.91-8.28 30.26-10.37 38.65zm26.46-81.95a9.34 9.34 0 0 1 3.13-.88c5.23-.78 11.17-.32 16.51-.47 2.1-.06 4.62.06 5.71 1.6a2.65 2.65 0 0 1 -.28 3.24c-1.43 1.64-4.22 1.76-6.41 1.88q-.72 0-1.44.06a93 93 0 0 1 -14.07-.21 9.36 9.36 0 0 1 -3-.75 2.8 2.8 0 0 1 -1.71-2.14 2.72 2.72 0 0 1 1.56-2.33z" fill="#fa94f5"/><path d="m448.21 137.89c2.59 3.47 6.45 5.34 11.5 5.57 1 0 2 .08 3 .08a42.72 42.72 0 0 0 9.31-.93 52 52 0 0 0 16.6-7.19c.9-.58 3.44-3.37 4.68-2.68s-.2 3.67-.49 4.85c-.49 2-.8 4 .26 5.43.75 1 2 1.46 4 1.5l23.81.46c1.91 0 4.05-.21 5.51-1.72a6.37 6.37 0 0 0 1.52-3.16c.11-.44.19-.89.26-1.32 1.25-7.21 10.84-44.41 16-64.39 1.47-5.68 2.56-9.92 3-11.63 1.25-5 2-8.73.27-10.94-.07-.09-.16-.17-.24-.26-1-1.11-2.7-1.65-5.1-1.65h-.29q-9.31.15-18.63.35c-2.49.05-4.87.23-6.65 1.8-1.48 1.31-2.06 3.19-2.57 5.16-1 4-2 8-3 12-.61 2.5-1.2 5-1.79 7.44-2 8.35-4.06 17-6.36 25.37-2.17 7.89-7.51 21.56-18.93 24.47a4.93 4.93 0 0 1 -1.25.16 3.45 3.45 0 0 1 -2.14-.67c-2.11-1.71-.38-7.9.55-11.23.25-.89.46-1.67.59-2.26 1.07-4.93 2.35-10.09 4-16.27 1.27-4.67 2.6-9.32 3.94-14 1.7-5.93 3.45-12.06 5-18.13.9-3.45 1.6-7.26.32-10.07a6.28 6.28 0 0 0 -.59-1.03c-1.25-1.68-3.36-2.59-6.28-2.71-4.6-.19-9.28-.28-13.89-.28-1.57 0-3.13 0-4.69 0-3.16 0-6.71.42-8.62 4.3a27.25 27.25 0 0 0 -2 6.67c-.19.95-.38 1.89-.62 2.81-.62 2.46-1.24 4.91-1.87 7.37q-5.12 20.14-10.16 40.33c-1.3 5.34-3.77 18.6 2.04 26.4zm71.79-83.89a7.07 7.07 0 0 1 2.67-.88c4.46-.78 9.53-.32 14.09-.47 1.8-.06 3.94.06 4.87 1.59a3 3 0 0 1 -.24 3.24c-1.21 1.65-3.6 1.77-5.46 1.89l-1.24.06a67.85 67.85 0 0 1 -12-.21 7 7 0 0 1 -2.58-.75 2.74 2.74 0 0 1 -1.47-2.14 2.77 2.77 0 0 1 1.36-2.33zm-55.6.06a3 3 0 0 1 1.9-1.19 23.3 23.3 0 0 1 3.82-.33 102.37 102.37 0 0 1 15.76.12 8.46 8.46 0 0 1 2.74.5 2.94 2.94 0 0 1 1.83 2c.76 3.6-5.76 3.87-7.8 3.83l-13.12-.31a7.91 7.91 0 0 1 -4.12-.85 2.73 2.73 0 0 1 -.98-3.83z" fill="#fa94f5"/><path d="m376.9 65.87a6.61 6.61 0 0 0 -.55 5.24 4.23 4.23 0 0 0 2.55 2.46 5.42 5.42 0 0 0 2 .36 7.56 7.56 0 0 0 3.82-1.13 14.12 14.12 0 0 0 4.07-4.13c.43-.59.88-1.2 1.38-1.79a37.19 37.19 0 0 1 6.67-6.41c2.87-2 7.62-4.13 11.75-4.13a7.88 7.88 0 0 1 5.11 1.58c3.15 2.55 2.87 6.5 2.29 10-.78 4.81-1.22 9.57-2.95 14.17a4.68 4.68 0 0 1 -1.04 1.91c-1.61 1.53-6.18-1.48-8-2a34.75 34.75 0 0 0 -9.67-1.36c-14.82 0-29.42 9.07-37.19 23.11-4.81 8.67-9.2 25.39-3.88 35.4 3.14 5.91 10.7 9.43 20.22 9.43a33.86 33.86 0 0 0 9.77-1.38c4.8-1.5 8.44-3.89 12.37-6.92a3 3 0 0 1 1.38-.71c1.71-.2 1.52 1.73 1.42 2.77-.29 3.09.16 5.06 3.53 5.06l20.88-.3c2.38 0 5.44-.32 8-2.18 2.93-2.16 3.41-4.73 4-7.7l.16-.82c.86-4.54 1.92-9.36 3.22-14.72 1.58-6.52 3.35-13.12 5.06-19.49.87-3.25 1.75-6.49 2.6-9.74 3.11-11.88 5-24.07-1.4-33.35a19.89 19.89 0 0 0 -1.46-1.89c-6-7.05-15.21-9.38-21.83-10.09a53.8 53.8 0 0 0 -5.6-.29c-8.53 0-19 2-27.31 7.18a29.9 29.9 0 0 0 -11.37 11.86zm31.58 32.18a89.75 89.75 0 0 1 -4.6 18.35c-1.57 4.19-4.53 9.91-9.75 13.34a18 18 0 0 1 -2.55 1.39 8.1 8.1 0 0 1 -3.22.8 4.34 4.34 0 0 1 -1-.12 5.49 5.49 0 0 1 -3.58-3.63 15.11 15.11 0 0 1 -.56-5.79c.4-9.06 2.54-16.93 6.37-23.38 2.61-4.39 6.46-7.17 10.27-7.42h.6a9.28 9.28 0 0 1 7.31 3.52 3.73 3.73 0 0 1 .83 1.79 5.4 5.4 0 0 1 -.12 1.15zm35-30.67a4 4 0 0 1 -2.23 3.29 4.33 4.33 0 0 1 -4.34-1.1 20.57 20.57 0 0 1 -2.91-3.76 22.79 22.79 0 0 0 -6.39-6.18c-3.43-2.21-7.44-3.49-10.61-6.05-.77-.61-1.54-1.52-1.27-2.46s1.5-1.32 2.53-1.39a19 19 0 0 1 4 .19 34.92 34.92 0 0 1 12.61 4.71c3.81 2.37 9.13 7.86 8.57 12.75z" fill="#fa94f5"/><path d="m585.85 119.82a12.55 12.55 0 0 0 2.38.23 14.26 14.26 0 0 0 9.16-3.49 18.12 18.12 0 0 0 5.78-10.49 8.77 8.77 0 0 0 -1.57-7 6.56 6.56 0 0 0 -5-2.53h-.75c-5 0-9.14 2.45-10.85 6.39a9.35 9.35 0 0 0 2.73 10.91 6.47 6.47 0 0 1 -2.76 1.6 2.7 2.7 0 0 0 -1.28.67 2 2 0 0 0 .15 2.76 3.77 3.77 0 0 0 2.01.95z" fill="#fa94f5"/><path d="m602.05 121.93c.07 4.49 2 8.62 3.8 12.6.52 1.12 1 2.24 1.51 3.37 0 .09.89 2.18-.58 2.81a2.2 2.2 0 0 1 -.85.18c-1.11 0-2.3-1-3.52-2.9a10.87 10.87 0 0 1 -1.27-4.5 21.57 21.57 0 0 0 -.55-3 3.19 3.19 0 0 0 -2.25-2.56 2 2 0 0 0 -.48-.05 4.93 4.93 0 0 0 -.85.1 4.44 4.44 0 0 0 -1.62.6 3.84 3.84 0 0 0 -1.38 2.49 11.36 11.36 0 0 0 2.42 9.16 17 17 0 0 0 11.63 6.37h1.15a15.78 15.78 0 0 0 11.17-4.6 12.94 12.94 0 0 0 3.52-7.56 25.07 25.07 0 0 0 -1.6-10.93 81.55 81.55 0 0 0 -3.26-7.58c-.36-.78-.73-1.56-1.08-2.34a5.21 5.21 0 0 1 -.69-2.5 1.57 1.57 0 0 1 1.73-1.57 3 3 0 0 1 2.56 1.47 8.1 8.1 0 0 1 .47 2.24c.19 1.55.41 3.31 1.62 4.27a3 3 0 0 0 1.84.66 3.94 3.94 0 0 0 3.6-3.52 7.18 7.18 0 0 0 -1.68-5.72 8.22 8.22 0 0 0 -.66-.66 12.51 12.51 0 0 0 -8-2.87h-.41a16.44 16.44 0 0 0 -6.64 1.43 16.24 16.24 0 0 0 -4.84 3.28 16.56 16.56 0 0 0 -4.81 11.83z" fill="#fa94f5"/><path d="m328.73 157.82c-1.7-2.28-2.77-2.91-5.47-3.19s-5.24-.43-7.94-.47l-8.88-.14h-.44c-2.46 0-3.68.41-4.36 2.82l-8.93 31.5c0 .14-.1.33-.17.55-.25.76-.83 2.55-.51 3.05.1.16.43.35 1.44.35h.92.71.09c1.69 0 3.39.05 5.09.05h4.12c1.65 0 3.22-.08 4.82-.13l2.34-.07a22.58 22.58 0 0 0 4.42-.41 14.3 14.3 0 0 0 8.15-5.71 30.46 30.46 0 0 0 4.28-9.33 63.55 63.55 0 0 0 2-9 17.66 17.66 0 0 0 -.15-6.31 9.25 9.25 0 0 0 -1.53-3.56zm-9.62 9.44a35.86 35.86 0 0 1 -3.61 12.36 15.26 15.26 0 0 1 -3.37 4.73 7.57 7.57 0 0 1 -4.82 2 5.32 5.32 0 0 1 -.69 0 1.31 1.31 0 0 1 -.77-.3 1.44 1.44 0 0 1 -.18-1.45l4.79-16.41c.2-.69.41-1.37.62-2.06.17-.53.33-1.06.49-1.6a10 10 0 0 0 .22-1 5.73 5.73 0 0 1 1-2.76 2.35 2.35 0 0 1 1.67-.63 5.21 5.21 0 0 1 3.8 2c1.07 1.45 1.03 3.4.85 5.12z" fill="#81dede"/><path d="m370.91 160.69a7.93 7.93 0 0 0 -5.71-5.8 36.58 36.58 0 0 0 -9.75-1.1c-2.59 0-5.18.16-7.69.3l-1.32.08a6.48 6.48 0 0 0 -2.79.6c-1.32.71-1.8 2.52-2.22 4.1-.06.27-.13.52-.2.76-.67 2.35-1.32 4.72-2 7.08-1.61 5.94-3.5 13-5.24 20-.29 1.17-.57 2.34-.83 3.52a1.85 1.85 0 0 0 .07 1.44 1.77 1.77 0 0 0 1.38.38h.91c2.51 0 5-.07 7.52-.22a1.29 1.29 0 0 0 1.52-1.28c.71-2.86 1.48-5.68 2.23-8.42.4-1.45.8-2.91 1.2-4.4a2.44 2.44 0 0 1 .28-.71 1.74 1.74 0 0 1 1.51-.71 2.94 2.94 0 0 1 2.49 2.08 8.12 8.12 0 0 1 .22 3.12c-.08 1.08-.22 2.16-.35 3.21-.11.81-.21 1.62-.29 2.43 0 .19-.05.44-.09.72-.16 1.2-.46 3.44.36 4a4.42 4.42 0 0 0 2.18.44l8.64.11a2.31 2.31 0 0 0 1.81-.52c.33-.4.37-1.11.13-2.4a13.83 13.83 0 0 1 -.18-3.61c0-.43.09-.86.14-1.29a22.45 22.45 0 0 0 .16-5.6 8.19 8.19 0 0 0 -1.17-3.26 3.85 3.85 0 0 0 -.42-.48c-.47-.48-1.05-1.08-.88-1.74.22-.84 1.36-1.12 2.38-1.36a4.46 4.46 0 0 0 .92-.28 9.75 9.75 0 0 0 3.4-2.86 9.91 9.91 0 0 0 1.68-8.33zm-13.26 6.79a6.76 6.76 0 0 1 -5.17 3.24 1.94 1.94 0 0 1 -.33 0 1.56 1.56 0 0 1 -1.35-.58c-.61-.85-.11-2.29.29-3.45l.08-.25c.12-.34.24-.8.38-1.33.6-2.3 1.41-5.45 3.57-5.45a3.49 3.49 0 0 1 2.12.91c1.96 1.61 1.5 5.04.41 6.91z" fill="#81dede"/><path d="m405.08 154.06h-6.24l-3.84-.06h-1.49a5.43 5.43 0 0 0 -3.39.73 5.66 5.66 0 0 0 -1.36 1.85l-8.37 15.51c-2.64 4.87-5.36 9.91-7.94 14.92a13.43 13.43 0 0 0 -1.27 3.12c-.14.65-.12 1.52.43 1.83a2 2 0 0 0 .79.16c2.2.15 4.44.23 6.64.23h1.77a2.25 2.25 0 0 0 1.09-.18 2.41 2.41 0 0 0 .91-1.25c.21-.46.41-1 .61-1.54.78-2.12 1.75-4.75 4.39-4.78h3.21c.94 0 1.52.3 1.74.89a2.05 2.05 0 0 1 .06 1 15.05 15.05 0 0 1 -.54 2.35 11.84 11.84 0 0 0 -.55 2.85.8.8 0 0 0 .17.59 1.54 1.54 0 0 0 1 .21h.5l6.9-.17h1.07.82c1.55 0 2.58-.28 2.95-1.68a17.67 17.67 0 0 0 .39-3.57c0-.64.05-1.3.12-1.91q.27-2.82.59-5.62l.28-2.53c.73-6.62 1.49-13.47 1.8-20.23a3 3 0 0 0 -.33-1.94c-.55-.71-1.92-.78-2.91-.78zm-9.26 16.82c-.07.86-.17 1.71-.27 2.57-.14 1.24-.37 1.84-1.84 1.89h-.57c-.35 0-.73.05-1.1.05a2.12 2.12 0 0 1 -1.76-.59 1.38 1.38 0 0 1 -.06-1.31 24.94 24.94 0 0 1 2.49-4.66c.13-.2.24-.4.36-.6a7.2 7.2 0 0 1 1.13-1.6 1.18 1.18 0 0 1 .84-.44h.14c.45.08.72.49.75 1.13a27.22 27.22 0 0 1 -.11 3.56z" fill="#81dede"/><path d="m504.26 160.69a7.93 7.93 0 0 0 -5.71-5.8 36.53 36.53 0 0 0 -9.75-1.1c-2.59 0-5.18.16-7.69.3l-1.32.08a6.44 6.44 0 0 0 -2.78.6c-1.33.71-1.81 2.51-2.22 4.1-.07.26-.14.52-.21.76-.67 2.35-1.32 4.72-2 7.08-1.62 5.94-3.51 13-5.25 20-.29 1.19-.58 2.36-.83 3.52a1.85 1.85 0 0 0 .07 1.44 1.77 1.77 0 0 0 1.38.38h.92c2.5 0 5-.07 7.52-.22a1.88 1.88 0 0 0 1-.27 1.91 1.91 0 0 0 .47-1c.71-2.86 1.48-5.69 2.23-8.42.4-1.45.81-2.91 1.2-4.4a2.67 2.67 0 0 1 .28-.71 1.74 1.74 0 0 1 1.51-.71 2.94 2.94 0 0 1 2.49 2.08 8.12 8.12 0 0 1 .22 3.12c-.08 1.07-.22 2.16-.35 3.21-.11.81-.21 1.61-.29 2.43 0 .19-.05.44-.09.72-.16 1.2-.45 3.44.36 4a4.42 4.42 0 0 0 2.18.44l8.64.11a2.31 2.31 0 0 0 1.81-.52c.33-.4.37-1.11.14-2.4a13.87 13.87 0 0 1 -.19-3.61c.05-.43.09-.86.14-1.3a21.88 21.88 0 0 0 .13-5.54 8.14 8.14 0 0 0 -1.17-3.26 3.85 3.85 0 0 0 -.42-.48c-.47-.48-1-1.08-.88-1.74.22-.84 1.36-1.12 2.38-1.36a4.46 4.46 0 0 0 .92-.28 9.75 9.75 0 0 0 3.4-2.86 9.91 9.91 0 0 0 1.76-8.39zm-13.26 6.79a6.74 6.74 0 0 1 -5.17 3.24 1.94 1.94 0 0 1 -.33 0 1.57 1.57 0 0 1 -1.35-.58c-.61-.85-.11-2.29.29-3.45l.09-.25c.11-.34.23-.8.37-1.33.6-2.3 1.41-5.45 3.57-5.45a3.49 3.49 0 0 1 2.12.91c1.96 1.61 1.5 5.04.41 6.91z" fill="#81dede"/><path d="m612.48 153.83h-.29c-1.23 0-2.47 0-3.66-.07s-2.31-.06-3.48-.07h-10.27c-1.9 0-3.78.16-4.61 1.35a10.19 10.19 0 0 0 -1.09 3.25c-.1.49-.21.95-.32 1.36-.67 2.35-1.32 4.72-2 7.08-1.62 6-3.52 13-5.24 20-.07.27-.19.64-.34 1.07-.47 1.4-1.27 3.75-.31 4.28a3.59 3.59 0 0 0 1.67.27q5.67 0 11.36 0h7.72a2.79 2.79 0 0 0 2.3-.77 4.87 4.87 0 0 0 .74-1.77c.06-.23.12-.45.19-.65.17-.55.53-1.76.9-3s.73-2.45.91-3c.11-.35.41-1.5-.34-1.93a2 2 0 0 0 -.82-.23 5.72 5.72 0 0 0 -.59 0l-8.59.06a1.37 1.37 0 0 1 -1-.32 1.33 1.33 0 0 1 -.24-1.34q.17-.51.27-.93c.36-1.28.62-2.21 2.14-2.23l7.94-.08c.68 0 1.36-.08 1.66-.5a2.06 2.06 0 0 0 .24-.56c.24-.79.37-1.39.52-2s.28-1.26.54-2.08a5.48 5.48 0 0 1 .24-.66c.32-.83.77-1.95.28-2.45a3.36 3.36 0 0 0 -2.25-.56h-.95-5a2.46 2.46 0 0 1 -1.18-.22c-1-.54-.56-1.66-.26-2.4a6.1 6.1 0 0 0 .22-.63 2.63 2.63 0 0 1 .85-1.73 1.84 1.84 0 0 1 1.21-.36h.74.44c1.41.05 2.91.07 4.86.07h.35c.31 0 .66 0 1 .07s.74.07 1.09.07a1.73 1.73 0 0 0 1.57-.61 3.75 3.75 0 0 0 .55-1.54c.24-1.34.61-2.64 1-3.91l.25-.92c.15-.54.28-1.11.11-1.33s-.51-.08-1.03-.08z" fill="#81dede"/><path d="m538.43 154.06h-6.24-3.84-1.49a5.43 5.43 0 0 0 -3.39.73 5.5 5.5 0 0 0 -1.35 1.85l-8.34 15.43c-2.65 4.9-5.39 10-8 15a13.43 13.43 0 0 0 -1.27 3.12c-.14.65-.12 1.52.43 1.83a2 2 0 0 0 .79.16c2.2.15 4.44.23 6.64.23h1.77a2.25 2.25 0 0 0 1.09-.18 2.41 2.41 0 0 0 .91-1.25c.22-.46.41-1 .61-1.54.78-2.12 1.75-4.75 4.4-4.78h3.21c.93 0 1.51.3 1.73.89a2.05 2.05 0 0 1 .06 1 15.05 15.05 0 0 1 -.54 2.35 11.84 11.84 0 0 0 -.55 2.85.8.8 0 0 0 .17.59 1.54 1.54 0 0 0 1 .21h.5l6.9-.17h1.07.82c1.55 0 2.58-.28 3-1.68a17 17 0 0 0 .39-3.57c0-.64 0-1.3.12-1.91q.27-2.82.59-5.62l.28-2.53c.73-6.62 1.49-13.47 1.8-20.23a3 3 0 0 0 -.33-1.94c-.58-.77-1.95-.84-2.94-.84zm-9.26 16.82c-.07.84-.16 1.67-.26 2.57-.15 1.24-.37 1.84-1.85 1.89h-.57c-.35 0-.73.05-1.1.05a2.12 2.12 0 0 1 -1.76-.59 1.41 1.41 0 0 1 -.06-1.31 24.94 24.94 0 0 1 2.49-4.66c.13-.2.24-.4.36-.6a7.44 7.44 0 0 1 1.13-1.6 1.18 1.18 0 0 1 .84-.44h.14c.21 0 .71.22.75 1.13a27.27 27.27 0 0 1 -.11 3.56z" fill="#81dede"/><path d="m445.47 155.36a18.08 18.08 0 0 0 -10.1-2.92h-.37a15.48 15.48 0 0 0 -8.4 2.42 25.66 25.66 0 0 0 -9.19 12.28c-2.09 5.61-4.14 12.14-3.44 18 .31 2.64 1.72 5.92 4.72 7.2a11.87 11.87 0 0 0 3 .73 11.19 11.19 0 0 0 1.6.12 8.73 8.73 0 0 0 5.94-2.29 21.24 21.24 0 0 0 1.8-1.75.35.35 0 0 1 .28-.13.41.41 0 0 1 .19 0 .37.37 0 0 1 .17.44l-.51 1.7a1.87 1.87 0 0 0 0 1.54 1.15 1.15 0 0 0 .95.32l6.52-.22 2.93-.11c2-.1 2.36-1.91 2.7-3.83.08-.41.15-.82.24-1.21.25-1.07.51-2.15.77-3.22.4-1.66.8-3.32 1.18-5 .21-.92.47-1.82.71-2.7a36.75 36.75 0 0 0 .95-3.82 3.06 3.06 0 0 0 -.05-1.73c-.27-.57-1.3-.86-3-.86-.74 0-1.47.05-2.11.09-.48 0-.89.06-1.26.06l-8.39-.13a3.12 3.12 0 0 0 -2 .49 3.53 3.53 0 0 0 -.87 1.64c-.37 1.12-2.08 4.26-.4 5a2.38 2.38 0 0 0 .92.12h1.68a1.94 1.94 0 0 1 1.19.28 1.85 1.85 0 0 1 .35 1.85c-.23 1.17-.42 2.34-1.44 3.08a4.84 4.84 0 0 1 -2.86.86h-.51a3.27 3.27 0 0 1 -2.59-1.41c-1.8-2.68 0-8.33.9-11.37.1-.3.18-.58.25-.81a27 27 0 0 1 4-8.46c.81-1.08 3.15-2.77 4.41-1.32a2.53 2.53 0 0 1 .49 1.21 8.78 8.78 0 0 1 .12 2.4c-.07.75-.19 1.62.36 2.13a2.21 2.21 0 0 0 1.52.41l7.92.14a4.12 4.12 0 0 0 1.53-.16c1.94-.74 1.15-4.62.76-6.13a8.71 8.71 0 0 0 -3.56-4.93z" fill="#81dede"/><path d="m567.23 165.75a13.17 13.17 0 0 0 -.59 2.21 1.62 1.62 0 0 0 .21 1.28c.37.42 1.2.46 2.1.46h.91c1.07 0 2.13.05 3.2.05 1.33 0 2.69 0 4-.07a3.55 3.55 0 0 0 2.71-1.11c1.27-1.43 1.23-4.08 1-6.72a8.52 8.52 0 0 0 -3.62-6.49 18.06 18.06 0 0 0 -10.1-2.92h-.35a15.5 15.5 0 0 0 -8.4 2.42 25.73 25.73 0 0 0 -9.19 12.28c-2.09 5.61-4.13 12.13-3.44 18 .32 2.64 1.72 5.92 4.72 7.2a18.65 18.65 0 0 0 7.29 1.42 21.65 21.65 0 0 0 10.68-2.8 20.92 20.92 0 0 0 6.64-6.06c1.57-2.24 3.35-5.53 3.65-8a1.92 1.92 0 0 0 -.84-2 3 3 0 0 0 -1.37-.21h-8.39a3.7 3.7 0 0 0 -2.21.47 3.9 3.9 0 0 0 -1.16 2.21c0 .16-.09.32-.14.47s-1.84 5.51-4.4 5.51a1.85 1.85 0 0 1 -1-.33c-1.69-1.12-1.49-4.42-1.39-5.41a33.53 33.53 0 0 1 1.5-6.31c.11-.39.42-1.4.42-1.4.78-2.62 1.84-6.19 3.79-8.23a3.37 3.37 0 0 1 2.39-1.05 2.08 2.08 0 0 1 1.59.65 2.37 2.37 0 0 1 .51 1.91 13.1 13.1 0 0 1 -.72 2.57z" fill="#81dede"/><path d="m109.06 15c-10.72-2.21-21.25-2.21-32.18-2.3-3.52 0-8.77.14-11.48 2.83a4.54 4.54 0 0 0 -1.09 5 5 5 0 0 0 3 2.51 14.29 14.29 0 0 0 4 .57c14.33.63 29-.88 43 2.75a54.16 54.16 0 0 1 25.09 14.55c1.24 1.27 3.09 2.71 4.57 1.74s1-3 .39-4.46c-5.78-13.82-21.51-20.37-35.3-23.19z" fill="#eef3ff"/><path d="m169.32 59.86a9.11 9.11 0 0 0 3.17.31c5.35-.09 11 0 16.29-.86a7.25 7.25 0 0 0 3.22-1.21c1.34-1 1.65-2.78 0-3.74a5.07 5.07 0 0 0 -2.11-.54 88.29 88.29 0 0 0 -17.43-.24 2.6 2.6 0 0 0 -.45.07c-3.01.61-8.09 4.35-2.69 6.21z" fill="#eef3ff"/><path d="m220.31 58.47c1.46 1.06 3.41 1.05 5.22 1l9.44-.29a44.13 44.13 0 0 0 9.47-1 3.25 3.25 0 0 0 2.08-1.18 2.3 2.3 0 0 0 -.71-2.79 6.12 6.12 0 0 0 -2.89-1.08c-4.54-.8-8.8-.43-13.34-.28-2.59.09-5.6 0-7.89 1.55-1.21.82-3.05 2.85-1.38 4.07z" fill="#eef3ff"/><path d="m341.8 23.45c1.46.31 3.19.6 4.28-.43a3 3 0 0 0 0-4 8 8 0 0 0 -3.68-2.26c-15.24-5.7-36.16-5.37-52.23-4.11a10.6 10.6 0 0 0 -4.53 1.09 3.81 3.81 0 0 0 -2 3.89c.52 2.23 3.31 2.92 5.59 3.11 17.48 1.49 35.37-.99 52.57 2.71z" fill="#eef3ff"/><path d="m434.91 54.63a34.92 34.92 0 0 0 -12.61-4.71 19 19 0 0 0 -4-.19c-1 .07-2.25.4-2.53 1.39s.5 1.85 1.27 2.46c3.17 2.56 7.18 3.84 10.61 6.05a22.79 22.79 0 0 1 6.35 6.18 20.57 20.57 0 0 0 2.83 3.76 4.33 4.33 0 0 0 4.34 1.1 4 4 0 0 0 2.23-3.29c.6-4.89-4.72-10.38-8.49-12.75z" fill="#eef3ff"/><path d="m465.44 57.79a7.91 7.91 0 0 0 4.12.85l13.12.31c2 0 8.56-.23 7.8-3.83a2.94 2.94 0 0 0 -1.83-2 8.46 8.46 0 0 0 -2.74-.5 102.37 102.37 0 0 0 -15.76-.12 23.3 23.3 0 0 0 -3.82.33 3 3 0 0 0 -1.9 1.19 2.73 2.73 0 0 0 1.01 3.77z" fill="#eef3ff"/><path d="m518.66 56.31a2.74 2.74 0 0 0 1.47 2.14 7 7 0 0 0 2.58.75 67.85 67.85 0 0 0 12 .21l1.24-.06c1.86-.12 4.25-.24 5.46-1.89a3 3 0 0 0 .24-3.24c-.93-1.53-3.07-1.65-4.87-1.59-4.56.15-9.63-.31-14.09.47a7.07 7.07 0 0 0 -2.69.9 2.77 2.77 0 0 0 -1.34 2.31z" fill="#eef3ff"/><path d="m569.32 34a9.36 9.36 0 0 0 3 .75 93 93 0 0 0 14.07.21q.72 0 1.44-.06c2.19-.12 5-.24 6.41-1.88a2.65 2.65 0 0 0 .28-3.24c-1.09-1.54-3.61-1.66-5.71-1.6-5.34.15-11.28-.31-16.51.47a9.34 9.34 0 0 0 -3.13.88 2.72 2.72 0 0 0 -1.6 2.33 2.8 2.8 0 0 0 1.75 2.14z" fill="#eef3ff"/></svg>